<svg width="32" height="32" viewBox="0 0 32 32" fill="none" xmlns="http://www.w3.org/2000/svg">
<mask id="mask0_765:222" style="mask-type:alpha" maskUnits="userSpaceOnUse" x="0" y="0" width="32" height="32">
<circle cx="16" cy="16" r="16" fill="#C4C4C4"/>
</mask>
<g mask="url(#mask0_765:222)">
<path fill-rule="evenodd" clip-rule="evenodd" d="M11.7673 12.7583C14.0753 12.9128 16.0811 13.923 18.2245 14.7938C21.2003 16.0027 25.1231 16.0373 26.7144 18.8308C28.3208 21.6509 27.2917 25.3585 25.9175 28.2992C24.6412 31.0302 22.154 32.9426 19.4758 34.3204C17.102 35.5416 14.4344 35.6741 11.7673 35.579C9.19403 35.4872 6.7019 35.0308 4.44773 33.7843C1.93052 32.3924 -0.896992 30.8435 -1.76276 28.0974C-2.62694 25.3564 -1.11581 22.5064 0.0662794 19.887C1.12815 17.5341 2.44843 15.2273 4.65112 13.8853C6.75433 12.604 9.31103 12.5939 11.7673 12.7583Z" fill="#31374F"/>
<path fill-rule="evenodd" clip-rule="evenodd" d="M24.8064 -3.25986C26.4106 -3.16495 27.7872 -2.39668 29.2724 -1.78098C31.3218 -0.93139 33.9661 -0.872854 35.1307 1.02015C36.335 2.97776 36.3385 5.79287 35.1372 7.75233C33.9751 9.64783 31.1849 9.42128 29.2805 10.5625C27.6374 11.5471 26.7042 13.6941 24.8064 13.9429C22.8419 14.2005 20.8987 13.1508 19.3934 11.8588C17.9625 10.6307 16.9216 8.89559 16.7354 7.01579C16.5668 5.31332 17.8932 3.93059 18.4479 2.31273C18.9886 0.735537 18.6884 -1.23574 19.9405 -2.33308C21.2149 -3.45003 23.117 -3.35981 24.8064 -3.25986Z" fill="#162B76"/>
<path fill-rule="evenodd" clip-rule="evenodd" d="M26.4893 8.50728C28.91 8.456 31.3479 9.13266 33.249 10.6297C35.1059 12.0919 36.6349 14.2308 36.7525 16.5889C36.8616 18.7773 34.8646 20.3667 33.831 22.2996C33.0281 23.8008 32.4068 25.2793 31.3789 26.6368C29.8828 28.6128 28.9665 32.1353 26.4893 31.9961C23.9575 31.8538 23.8164 27.8587 21.9839 26.1089C20.5401 24.7304 18.0746 24.6915 17.0477 22.9807C15.9182 21.099 15.7696 18.7402 16.28 16.6064C16.8178 14.3586 18.1225 12.3495 19.9348 10.9117C21.8029 9.42976 24.1038 8.55782 26.4893 8.50728Z" fill="#162B76"/>
<path fill-rule="evenodd" clip-rule="evenodd" d="M13.9336 -7.53196C16.3686 -7.25593 18.6804 -6.74325 20.8315 -5.5696C23.276 -4.2358 26.357 -3.03787 27.0919 -0.352445C27.8254 2.32816 25.7263 4.88932 24.3551 7.30682C23.2445 9.26487 21.659 10.7373 19.9624 12.2171C18.0734 13.8649 16.4266 16.1331 13.9336 16.3972C11.3614 16.6696 8.82516 15.3271 6.8993 13.6007C5.08957 11.9785 4.60852 9.50099 3.71796 7.23997C2.75541 4.79616 1.12323 2.48145 1.49568 -0.118468C1.90019 -2.9422 3.34629 -5.81316 5.79713 -7.27396C8.18631 -8.698 11.1697 -7.84529 13.9336 -7.53196Z" fill="#8294DE"/>
<path fill-rule="evenodd" clip-rule="evenodd" d="M13.8544 8.84622C14.0306 11.0882 15.1483 13.7742 13.6231 15.4237C12.0713 17.1017 9.12665 15.445 6.99511 16.2639C4.65205 17.1641 3.3783 20.3759 0.86953 20.3236C-1.68538 20.2704 -3.94709 18.2145 -5.24582 16.0087C-6.49184 13.8925 -6.63248 11.1875 -5.88814 8.84622C-5.24258 6.81561 -2.98714 5.94526 -1.54775 4.37656C-0.340174 3.06051 0.290803 1.26796 1.85473 0.407792C3.63266 -0.57007 5.71282 -1.17241 7.68577 -0.701892C9.7375 -0.212588 11.4986 1.20677 12.6449 2.98107C13.7547 4.69885 13.694 6.8061 13.8544 8.84622Z" fill="#7775C4"/>
<path fill-rule="evenodd" clip-rule="evenodd" d="M23.9927 -3.46495C25.303 -3.22798 26.4598 -2.67062 27.593 -1.96877C28.8267 -1.2047 30.297 -0.575803 30.8383 0.774747C31.3917 2.15513 31.123 3.79493 30.4306 5.11047C29.7949 6.31827 28.3289 6.68372 27.2743 7.54643C26.1283 8.48392 25.4695 10.3179 23.9927 10.377C22.5208 10.4358 21.6284 8.78636 20.5156 7.81672C19.5186 6.94797 18.4537 6.19143 17.8414 5.01692C17.133 3.65807 16.5209 2.16695 16.7823 0.655672C17.0642 -0.974156 17.8775 -2.64902 19.3088 -3.467C20.6999 -4.26199 22.4176 -3.74982 23.9927 -3.46495Z" fill="#B7B6FF"/>
<path d="M15.8666 11.1472C17.2988 11.1472 18.6723 11.7284 19.685 12.7631C20.6977 13.7978 21.2666 15.2012 21.2666 16.6644C21.2666 18.1277 20.6977 19.5311 19.685 20.5658C18.6723 21.6004 17.2988 22.1817 15.8666 22.1817C14.4345 22.1817 13.061 21.6004 12.0483 20.5658C11.0356 19.5311 10.4666 18.1277 10.4666 16.6644C10.4666 15.2012 11.0356 13.7978 12.0483 12.7631C13.061 11.7284 14.4345 11.1472 15.8666 11.1472ZM15.8666 24.9404C21.8336 24.9404 26.6666 27.4094 26.6666 30.4577V33.2163H5.06665V30.4577C5.06665 27.4094 9.89964 24.9404 15.8666 24.9404Z" fill="white"/>
</g>
</svg>
