<svg width="179" height="32" viewBox="0 0 179 32" fill="none" xmlns="http://www.w3.org/2000/svg">
<path d="M2.64902 19.8776H29.4561M2.64902 11.7743H29.351M14.1531 2.12074C14.1531 2.12074 10.3035 7.298 10.3035 15.9107C10.3035 25.8599 14.1531 29.8793 14.1531 29.8793M17.8469 2.12074C17.8469 2.12074 21.8104 7.298 21.8104 15.9107C21.8104 25.8599 17.8469 30 17.8469 30M30 16C30 23.732 23.732 30 16 30C8.26801 30 2 23.732 2 16C2 8.26801 8.26801 2 16 2C23.732 2 30 8.26801 30 16Z" stroke="#FF5880" stroke-width="3"/>
<path d="M42 23.7348V8.26519H44.6782V14.6961H51.2481V8.26519H53.9263V23.7348H51.2481V16.9945H44.6782V23.7348H42Z" fill="#1A1A1A"/>
<path d="M62.3805 24C60.9158 24 59.6325 23.6611 58.5306 22.9834C57.4426 22.3057 56.5847 21.3702 55.957 20.1768C55.3433 18.9687 55.0364 17.5764 55.0364 16C55.0364 14.4236 55.3433 13.0387 55.957 11.8453C56.5847 10.6372 57.4426 9.69429 58.5306 9.01657C59.6325 8.33886 60.9158 8 62.3805 8C63.8312 8 65.1075 8.33886 66.2095 9.01657C67.3114 9.69429 68.1693 10.6372 68.783 11.8453C69.3968 13.0387 69.7037 14.4236 69.7037 16C69.7037 17.5764 69.3968 18.9687 68.783 20.1768C68.1693 21.3702 67.3114 22.3057 66.2095 22.9834C65.1075 23.6611 63.8312 24 62.3805 24ZM62.3805 21.4586C63.7754 21.4586 64.8843 20.9724 65.7073 20C66.5442 19.0276 66.9627 17.6943 66.9627 16C66.9627 14.3057 66.5442 12.9724 65.7073 12C64.8843 11.0276 63.7754 10.5414 62.3805 10.5414C60.9856 10.5414 59.8697 11.0276 59.0327 12C58.1958 12.9724 57.7773 14.3057 57.7773 16C57.7773 17.6943 58.1958 19.0276 59.0327 20C59.8697 20.9724 60.9856 21.4586 62.3805 21.4586Z" fill="#1A1A1A"/>
<path d="M70.8129 23.7348V8.26519H76.2321C77.4038 8.26519 78.3732 8.47145 79.1404 8.88398C79.9076 9.2965 80.4795 9.86372 80.8561 10.5856C81.2327 11.3076 81.4211 12.1179 81.4211 13.0166C81.4211 13.8711 81.2397 14.6593 80.877 15.3812C80.5144 16.0884 79.9494 16.663 79.1823 17.105C78.4151 17.5322 77.4317 17.7459 76.2321 17.7459H73.4911V23.7348H70.8129ZM73.4911 15.4475H76.0647C76.9993 15.4475 77.6688 15.2339 78.0733 14.8066C78.4918 14.3646 78.701 13.768 78.701 13.0166C78.701 12.2505 78.4918 11.6538 78.0733 11.2265C77.6688 10.7845 76.9993 10.5635 76.0647 10.5635H73.4911V15.4475Z" fill="#1A1A1A"/>
<path d="M82.2668 23.7348V8.26519H84.945V21.5249H91.4312V23.7348H82.2668Z" fill="#1A1A1A"/>
<path d="M90.5479 23.7348L95.9043 8.26519H98.9172L104.274 23.7348H101.428L100.256 20.1547H94.5442L93.3516 23.7348H90.5479ZM95.2766 17.9448H99.524L97.3898 11.5138L95.2766 17.9448Z" fill="#1A1A1A"/>
<path d="M115.686 24C114.208 24 112.938 23.6685 111.878 23.0055C110.818 22.3278 110.002 21.3923 109.43 20.1989C108.858 18.9908 108.572 17.5985 108.572 16.0221C108.572 14.4457 108.858 13.0534 109.43 11.8453C110.002 10.6372 110.818 9.69429 111.878 9.01657C112.938 8.33886 114.208 8 115.686 8C117.444 8 118.881 8.46409 119.997 9.39226C121.126 10.3057 121.831 11.5948 122.11 13.2597H119.16C118.978 12.4199 118.588 11.7643 117.988 11.2928C117.402 10.8066 116.621 10.5635 115.644 10.5635C114.291 10.5635 113.231 11.0497 112.464 12.0221C111.697 12.9945 111.313 14.3278 111.313 16.0221C111.313 17.7164 111.697 19.0497 112.464 20.0221C113.231 20.9797 114.291 21.4586 115.644 21.4586C116.621 21.4586 117.402 21.2376 117.988 20.7956C118.588 20.3389 118.978 19.7127 119.16 18.9171H122.11C121.831 20.5083 121.126 21.7532 119.997 22.6519C118.881 23.5506 117.444 24 115.686 24Z" fill="#1A1A1A"/>
<path d="M126.74 24C125.847 24 125.115 23.8527 124.543 23.558C123.971 23.2486 123.546 22.8435 123.267 22.3425C122.988 21.8416 122.848 21.2891 122.848 20.6851C122.848 19.6685 123.225 18.8435 123.978 18.2099C124.732 17.5764 125.861 17.2597 127.368 17.2597H130.004V16.9945C130.004 16.2431 129.802 15.6906 129.397 15.337C128.993 14.9834 128.491 14.8066 127.891 14.8066C127.347 14.8066 126.873 14.9466 126.468 15.2265C126.064 15.4917 125.813 15.8895 125.715 16.4199H123.1C123.169 15.6243 123.42 14.9319 123.853 14.3425C124.299 13.7532 124.871 13.3039 125.568 12.9945C126.266 12.6703 127.047 12.5083 127.912 12.5083C129.39 12.5083 130.555 12.8987 131.406 13.6796C132.257 14.4604 132.682 15.5654 132.682 16.9945V23.7348H130.402L130.151 21.9669C129.844 22.5562 129.411 23.0424 128.853 23.4254C128.309 23.8085 127.605 24 126.74 24ZM127.347 21.7901C128.114 21.7901 128.707 21.5249 129.125 20.9945C129.558 20.4641 129.83 19.8085 129.941 19.0276H127.661C126.949 19.0276 126.44 19.1676 126.133 19.4475C125.827 19.7127 125.673 20.0442 125.673 20.442C125.673 20.8692 125.827 21.2007 126.133 21.4365C126.44 21.6722 126.845 21.7901 127.347 21.7901Z" fill="#1A1A1A"/>
<path d="M133.983 23.7348V12.7735H136.368L136.619 14.8287C136.996 14.1215 137.505 13.5617 138.147 13.1492C138.802 12.7219 139.569 12.5083 140.448 12.5083V15.4917H139.695C139.109 15.4917 138.586 15.5875 138.126 15.779C137.665 15.9705 137.303 16.302 137.038 16.7735C136.787 17.2449 136.661 17.9006 136.661 18.7403V23.7348H133.983Z" fill="#1A1A1A"/>
<path d="M145.882 24C144.836 24 143.908 23.7643 143.099 23.2928C142.29 22.8214 141.655 22.1584 141.195 21.3039C140.735 20.4494 140.504 19.4622 140.504 18.3425C140.504 17.2081 140.728 16.1989 141.174 15.3149C141.634 14.4309 142.262 13.7459 143.057 13.2597C143.866 12.7587 144.815 12.5083 145.903 12.5083C146.921 12.5083 147.821 12.744 148.602 13.2155C149.383 13.6869 149.99 14.3352 150.422 15.1602C150.869 15.9705 151.092 16.8766 151.092 17.8785C151.092 18.0405 151.085 18.2099 151.071 18.3867C151.071 18.5635 151.064 18.7477 151.05 18.9392H143.162C143.218 19.7937 143.497 20.4641 143.999 20.9503C144.515 21.4365 145.136 21.6796 145.861 21.6796C146.405 21.6796 146.858 21.5543 147.221 21.3039C147.597 21.0387 147.876 20.6998 148.058 20.2873H150.778C150.583 20.9797 150.255 21.6133 149.794 22.1878C149.348 22.7477 148.79 23.1897 148.121 23.5138C147.465 23.8379 146.719 24 145.882 24ZM145.903 14.8066C145.247 14.8066 144.668 15.0055 144.166 15.4033C143.664 15.7864 143.343 16.3757 143.204 17.1713H148.372C148.33 16.4494 148.079 15.8748 147.618 15.4475C147.158 15.0203 146.586 14.8066 145.903 14.8066Z" fill="#1A1A1A"/>
<path d="M157.131 24C156.085 24 155.158 23.7643 154.349 23.2928C153.54 22.8214 152.905 22.1584 152.445 21.3039C151.984 20.4494 151.754 19.4622 151.754 18.3425C151.754 17.2081 151.977 16.1989 152.424 15.3149C152.884 14.4309 153.512 13.7459 154.307 13.2597C155.116 12.7587 156.064 12.5083 157.152 12.5083C158.171 12.5083 159.07 12.744 159.851 13.2155C160.633 13.6869 161.239 14.3352 161.672 15.1602C162.118 15.9705 162.341 16.8766 162.341 17.8785C162.341 18.0405 162.334 18.2099 162.32 18.3867C162.32 18.5635 162.313 18.7477 162.299 18.9392H154.411C154.467 19.7937 154.746 20.4641 155.248 20.9503C155.764 21.4365 156.385 21.6796 157.11 21.6796C157.654 21.6796 158.108 21.5543 158.47 21.3039C158.847 21.0387 159.126 20.6998 159.307 20.2873H162.027C161.832 20.9797 161.504 21.6133 161.044 22.1878C160.598 22.7477 160.04 23.1897 159.37 23.5138C158.715 23.8379 157.968 24 157.131 24ZM157.152 14.8066C156.497 14.8066 155.918 15.0055 155.416 15.4033C154.913 15.7864 154.593 16.3757 154.453 17.1713H159.621C159.579 16.4494 159.328 15.8748 158.868 15.4475C158.408 15.0203 157.836 14.8066 157.152 14.8066Z" fill="#1A1A1A"/>
<path d="M163.338 23.7348V12.7735H165.724L165.975 14.8287C166.351 14.1215 166.86 13.5617 167.502 13.1492C168.158 12.7219 168.925 12.5083 169.804 12.5083V15.4917H169.05C168.465 15.4917 167.942 15.5875 167.481 15.779C167.021 15.9705 166.658 16.302 166.393 16.7735C166.142 17.2449 166.017 17.9006 166.017 18.7403V23.7348H163.338Z" fill="#1A1A1A"/>
<path d="M174.668 24C173.747 24 172.938 23.8453 172.241 23.5359C171.544 23.2118 170.986 22.7698 170.567 22.2099C170.149 21.6501 169.898 21.0018 169.814 20.2652H172.513C172.597 20.6924 172.82 21.0608 173.183 21.3702C173.559 21.6648 174.04 21.8122 174.626 21.8122C175.212 21.8122 175.638 21.6869 175.903 21.4365C176.182 21.186 176.321 20.8987 176.321 20.5746C176.321 20.1031 176.126 19.7864 175.735 19.6243C175.345 19.4475 174.801 19.2781 174.103 19.116C173.657 19.0129 173.203 18.8877 172.743 18.7403C172.283 18.593 171.857 18.4088 171.467 18.1878C171.09 17.9521 170.783 17.6575 170.546 17.3039C170.309 16.9355 170.19 16.4862 170.19 15.9558C170.19 14.9834 170.553 14.1657 171.278 13.5028C172.018 12.8398 173.05 12.5083 174.375 12.5083C175.603 12.5083 176.579 12.8103 177.304 13.4144C178.044 14.0184 178.483 14.8508 178.623 15.9116H176.091C175.937 15.1013 175.359 14.6961 174.354 14.6961C173.852 14.6961 173.461 14.7993 173.183 15.0055C172.917 15.2118 172.785 15.4696 172.785 15.779C172.785 16.1031 172.987 16.361 173.392 16.5525C173.796 16.744 174.333 16.9208 175.003 17.0829C175.728 17.2597 176.391 17.4586 176.991 17.6796C177.604 17.8858 178.093 18.2026 178.455 18.6298C178.818 19.0424 178.999 19.639 178.999 20.4199C179.013 21.0976 178.846 21.709 178.497 22.2541C178.148 22.7993 177.646 23.2265 176.991 23.5359C176.335 23.8453 175.561 24 174.668 24Z" fill="#1A1A1A"/>
</svg>
